<?xml version="1.0" encoding="utf-8"?>
<!-- Generator: Adobe Illustrator 23.0.0, SVG Export Plug-In . SVG Version: 6.00 Build 0)  -->
<svg version="1.1" id="Layer_1" xmlns="http://www.w3.org/2000/svg" xmlns:xlink="http://www.w3.org/1999/xlink" x="0px" y="0px"
	 viewBox="0 0 702 984" style="enable-background:new 0 0 702 984;" xml:space="preserve">
<style type="text/css">
	.st0{fill:#EFEFEF;}
</style>
<g>
	<g>
		<g>
			<path class="st0" d="M549.44,510.41c6.62,0,12.3,0,18.18,0c-0.8,23.44-9.39,44.11-16.33,66.31c-5.62-1.52-10.83-2.93-16.13-4.35
				c0-1.89-0.34-3.24,0.05-4.31C541.87,549.64,548.29,531.2,549.44,510.41L549.44,510.41z"/>
			<path class="st0" d="M116.5,825.92c-9.97-22.46-11.47-45.09-7.84-69.28c5.93,1.44,11.24,2.74,17.1,4.17
				c0,1.99,0.25,3.73-0.05,5.37c-2.31,13.48-1.79,26.88,1.52,40.11c1.03,4.11,2.83,8.03,4.43,12.43
				C127.8,822.7,122.99,824.99,116.5,825.92L116.5,825.92z"/>
			<path class="st0" d="M280.57,941.91c-1.1-5.67-2.11-10.85-3.28-16.77c18.5-3.62,35.66-9.31,49.98-22.48
				c3.43,4.16,6.6,8,9.73,11.76C331.53,928.51,303.16,942.37,280.57,941.91L280.57,941.91z"/>
			<path class="st0" d="M601.01,124.23c10.28-18.9,19.71-36.24,29.32-53.89c5.22,3.02,9.79,5.66,14.83,8.57
				c-8.69,19.79-19.03,37.95-31.39,56.04C608.86,130.8,604.67,127.31,601.01,124.23L601.01,124.23z"/>
			<path class="st0" d="M541.62,325.43c4.96,0,10.11,0,15.39,0c1.04,20.45,2.04,40.17,3.08,60.75c-5.19,0.44-10.36,0.89-15.32,1.33
				C540.84,377.79,538.7,335.41,541.62,325.43L541.62,325.43z"/>
			<path class="st0" d="M467.02,716.35c-12.01,17.08-23.35,33.22-34.8,49.51c-4.87-3.56-8.87-6.47-13.59-9.92
				c5.58-8.17,11.11-15.99,16.31-24.04c5.24-8.09,10.14-16.42,15.73-25.53C455.61,709.39,460.64,712.45,467.02,716.35L467.02,716.35
				z"/>
			<path class="st0" d="M153.93,353.15c13.45,6.7,28.08,32.96,28.92,52.21c-5.41,1-10.97,2.02-17.65,3.25
				c0.7-19.53-11.14-31.74-24.28-43.83C145.43,360.74,149.54,357.07,153.93,353.15L153.93,353.15z"/>
			<path class="st0" d="M185.83,518.41c6.46-0.66,11.43-1.15,17.28-1.75c4.07,20.01,4.76,39.19-3.52,59.12
				c-5.5-1.69-10.91-3.33-17.39-5.3C190.44,553.63,189.83,536.55,185.83,518.41L185.83,518.41z"/>
			<path class="st0" d="M562.99,196.01c4.61,2.53,8.56,4.71,13.28,7.28c-6.62,15.22-8.53,31.23-9.82,48.36
				c-5.5-0.92-10.54-1.75-16.27-2.7C550.23,230.16,551.73,212.52,562.99,196.01L562.99,196.01z"/>
		</g>
	</g>
</g>
<g>
	<path class="st0" d="M292.99,377c-8.53,0-15.16-4.08-15.59-12.28h11.36c0.22,2.88,1.9,3.86,3.86,3.86c1.9,0,3.37-0.98,3.37-2.77
		c-0.05-6.14-18.64-3.26-18.47-16.57c0-7.5,6.25-11.52,14.35-11.52c8.8,0,14.56,4.29,14.94,11.9h-11.57
		c-0.11-2.39-1.58-3.48-3.53-3.48c-1.58-0.05-2.83,0.87-2.83,2.72c0,5.71,18.42,3.86,18.42,16.14
		C307.28,371.73,302.06,377,292.99,377z"/>
	<path class="st0" d="M330.59,377c-10.87,0-19.67-8.15-19.67-19.67c0-11.52,8.8-19.62,19.67-19.62c10.92,0,19.62,8.1,19.62,19.62
		C350.2,368.85,341.46,377,330.59,377z M330.59,367.11c5.49,0,8.8-3.86,8.8-9.78c0-6.03-3.31-9.83-8.8-9.83
		c-5.54,0-8.8,3.8-8.8,9.83C321.79,363.25,325.05,367.11,330.59,367.11z"/>
	<path class="st0" d="M354.82,338.31h10.6v22.22c0,3.97,1.79,6.47,5.81,6.47s5.92-2.5,5.92-6.47v-22.22h10.65v22.22
		c0,10.92-7.61,16.46-16.79,16.46c-9.24,0-16.19-5.54-16.19-16.46V338.31z"/>
	<path class="st0" d="M391.55,338.31h30.97v8.48h-10.22v29.83h-10.65v-29.83h-10.11V338.31z"/>
	<path class="st0" d="M450.12,361.24h-12.99v15.38h-10.65v-38.31h10.65v14.4h12.99v-14.4h10.65v38.31h-10.65V361.24z"/>
	<path class="st0" d="M300.03,403.13c9.62,0,16.46,5.54,18.37,14.24h-11.47c-1.36-2.88-3.91-4.46-7.06-4.46
		c-4.89,0-8.1,3.8-8.1,9.67c0,5.92,3.21,9.73,8.1,9.73c3.15,0,5.71-1.58,7.06-4.46h11.47c-1.9,8.69-8.75,14.24-18.37,14.24
		c-11.52,0-19.07-8.04-19.07-19.51C280.95,411.17,288.51,403.13,300.03,403.13z"/>
	<path class="st0" d="M347.08,426.44h-12.99v15.38h-10.65v-38.31h10.65v14.4h12.99v-14.4h10.65v38.31h-10.65V426.44z"/>
	<path class="st0" d="M363.81,403.51h10.65v38.31h-10.65V403.51z"/>
	<path class="st0" d="M416.03,403.51v38.31h-10.65l-14.18-21.41v21.41h-10.65v-38.31h10.65l14.18,21.68v-21.68H416.03z"/>
	<path class="st0" d="M446.35,435.57h-13.58l-2.06,6.25h-11.19l13.96-38.31h12.28l13.91,38.31h-11.25L446.35,435.57z M439.56,415.03
		l-4.08,12.39h8.2L439.56,415.03z"/>
	<path class="st0" d="M334.91,507.4c-8.53,0-15.16-4.08-15.59-12.28h11.36c0.22,2.88,1.9,3.86,3.86,3.86c1.9,0,3.37-0.98,3.37-2.77
		c-0.05-6.14-18.64-3.26-18.47-16.57c0-7.5,6.25-11.52,14.35-11.52c8.8,0,14.56,4.29,14.94,11.9h-11.57
		c-0.11-2.39-1.58-3.48-3.53-3.48c-1.58-0.05-2.83,0.87-2.83,2.72c0,5.71,18.42,3.86,18.42,16.14
		C349.2,502.13,343.98,507.4,334.91,507.4z"/>
	<path class="st0" d="M378.65,477.24h-13.86v6.25h12.23v8.1h-12.23v6.9h13.86v8.53h-24.51v-38.31h24.51V477.24z"/>
	<path class="st0" d="M408.15,500.77h-13.58l-2.06,6.25h-11.19l13.96-38.31h12.28l13.91,38.31h-11.25L408.15,500.77z M401.36,480.23
		l-4.08,12.39h8.2L401.36,480.23z"/>
	<path class="st0" d="M256.04,533.91h10.65v38.31h-10.65V533.91z"/>
	<path class="st0" d="M287.23,572.6c-8.53,0-15.16-4.08-15.59-12.28h11.36c0.22,2.88,1.9,3.86,3.86,3.86c1.9,0,3.37-0.98,3.37-2.77
		c-0.05-6.14-18.64-3.26-18.47-16.57c0-7.5,6.25-11.52,14.35-11.52c8.8,0,14.56,4.29,14.94,11.9h-11.57
		c-0.11-2.39-1.58-3.48-3.53-3.48c-1.58-0.05-2.83,0.87-2.83,2.72c0,5.71,18.42,3.86,18.42,16.14
		C301.52,567.33,296.31,572.6,287.23,572.6z"/>
	<path class="st0" d="M317.11,533.91v30.16h11.9v8.15h-22.55v-38.31H317.11z"/>
	<path class="st0" d="M357.38,565.97h-13.58l-2.06,6.25h-11.19l13.96-38.31h12.28l13.91,38.31h-11.25L357.38,565.97z M350.58,545.43
		l-4.08,12.39h8.2L350.58,545.43z"/>
	<path class="st0" d="M409.65,533.91v38.31H399l-14.18-21.41v21.41h-10.65v-38.31h10.65L399,555.59v-21.68H409.65z"/>
	<path class="st0" d="M450.88,553.04c0,11.08-7.77,19.18-20,19.18h-15.16v-38.31h15.16C443.11,533.91,450.88,541.79,450.88,553.04z
		 M430.07,562.82c6.14,0,10-3.48,10-9.78c0-6.36-3.86-9.89-10-9.89h-3.69v19.67H430.07z"/>
	<path class="st0" d="M470.12,572.6c-8.53,0-15.16-4.08-15.59-12.28h11.36c0.22,2.88,1.9,3.86,3.86,3.86c1.9,0,3.37-0.98,3.37-2.77
		c-0.05-6.14-18.64-3.26-18.47-16.57c0-7.5,6.25-11.52,14.35-11.52c8.8,0,14.56,4.29,14.94,11.9h-11.57
		c-0.11-2.39-1.58-3.48-3.53-3.48c-1.58-0.05-2.83,0.87-2.83,2.72c0,5.71,18.42,3.86,18.42,16.14
		C484.41,567.33,479.19,572.6,470.12,572.6z"/>
</g>
</svg>
