<?xml version="1.0" encoding="utf-8"?>
<!-- Generator: Adobe Illustrator 23.0.0, SVG Export Plug-In . SVG Version: 6.00 Build 0)  -->
<svg version="1.1" id="Layer_1" xmlns="http://www.w3.org/2000/svg" xmlns:xlink="http://www.w3.org/1999/xlink" x="0px" y="0px"
	 viewBox="0 0 3249 1083" style="enable-background:new 0 0 3249 1083;" xml:space="preserve">
<style type="text/css">
	.st0 {
		fill: #ffffff;
		fill-opacity: 0.4;
	}
</style>
<g>
	<path class="st0" d="M2681.06,0c17.27,0,34.55,0,51.82,0c1.19,0.26,2.37,0.62,3.58,0.77c28.81,3.49,57.96,5.2,86.36,10.73
		c106.64,20.77,196.4,72.87,272.32,149.89c80.9,82.08,131.41,179.39,147.59,293.88c2.85,20.18,4.22,40.56,6.27,60.85
		c0,16.92,0,33.84,0,50.77c-0.34,3.31-0.83,6.61-1.01,9.92c-4.07,74.03-21.02,144.75-54.87,210.99
		c-45.65,89.32-112.96,158.84-196.75,212.81c-61.02,39.31-127.64,64.51-199.51,75.16c-21.56,3.19-43.35,4.86-65.03,7.23
		c-16.92,0-33.84,0-50.77,0c-2.42-0.33-4.84-0.84-7.27-0.97c-47.2-2.54-93.35-10.91-138.09-26.16
		c-104.98-35.79-189.5-100.25-257.98-186.44c-58.72-73.91-94.45-157.86-106.61-251.61c-2.11-16.28-3.38-32.67-5.05-49.09
		c-0.25,0.3-0.62,0.53-0.64,0.78c-0.51,7.38-0.91,14.77-1.48,22.15c-5.3,68.7-22.12,134.29-53.58,195.78
		c-45.71,89.36-113.75,158.29-197.19,212.53c-60.7,39.46-127.14,64.78-198.8,75.65c-21.72,3.3-43.69,4.96-65.55,7.37
		c-16.92,0-33.84,0-50.77,0c-2.78-0.34-5.54-0.85-8.33-1.01c-60.3-3.47-118.46-16.34-174.02-40.18
		c-82.2-35.27-150.77-88.86-208.35-156.79c-67.36-79.48-108.07-170.81-120.22-274.54c-1.66-14.18-2.67-28.43-3.98-42.65
		c-0.9,2.42-1.04,4.82-1.17,7.23c-4.06,74.6-21.56,145.79-55.35,212.56c-47.33,93.52-118.55,164.71-207.71,218.36
		c-59.43,35.76-123.67,59.23-192.32,69.82c-20.84,3.22-41.92,4.84-62.9,7.2c-15.51,0-31.02,0-46.54,0
		c-2.25-0.31-4.49-0.63-6.74-0.94c-29.44-4.06-59.35-6.01-88.22-12.55c-108.93-24.66-200.89-79.48-276.97-160.98
		C69.84,827.76,22.86,732.92,6.26,623.46c-2.9-19.09-4.21-38.42-6.26-57.64c0-16.22,0-32.43,0-48.65c0.33-2.4,0.68-4.8,0.98-7.21
		c3.05-24.27,4.62-48.83,9.37-72.76c25.74-129.75,92.56-235.02,193.39-319.33c73.1-61.13,157.06-98.43,251.49-111.68
		c19.85-2.78,39.89-4.17,59.84-6.21c17.27,0,34.55,0,51.82,0c2.42,0.32,4.84,0.71,7.28,0.96c19.09,1.92,38.32,2.97,57.26,5.85
		c89.76,13.64,170.67,48.27,242.08,104.4c120.76,94.92,190.04,218.62,206.43,371.6c1.15,10.76,1.83,21.56,2.74,32.34
		c4.15-35.64,7.86-71.33,16.12-105.93c27.62-115.73,90.93-209.7,180.66-286.37c74.65-63.78,160.9-102.81,258.26-116.58
		c20.01-2.83,40.23-4.22,60.35-6.28c17.27,0,34.55,0,51.82,0c1.19,0.26,2.37,0.62,3.58,0.76c28.82,3.42,57.98,5.06,86.41,10.55
		c100.79,19.46,187.31,66.68,260.93,137.91c91.55,88.58,146.75,195.35,161.15,322.46c1.61,14.19,2.6,28.45,3.88,42.68
		c0.81-1.52,1.03-3.04,1.1-4.56c1.82-38.13,7.46-75.69,17.69-112.46c34.34-123.32,106.01-220.83,207.61-297
		c68.07-51.04,144.74-82.15,229.01-94.06C2641.09,3.49,2661.12,2.06,2681.06,0z M542.2,983.45
		c209.53,1.8,444.45-165.77,443.74-441.35C985.31,296.47,784.6,97.65,543.29,96.83C276.03,95.93,96.12,327.94,97.25,541.21
		C98.51,781.59,300.36,983.42,542.2,983.45z M2068.37,542.05c4.22-243.47-200.83-443.98-440.73-445.36
		c-259.29-1.49-447.5,223.65-447.99,444.01c-0.53,235.93,205.6,443.62,443.56,444.65C1842.25,986.32,2073.69,803.45,2068.37,542.05z
		 M3151.38,541.61c4.88-243.56-204.62-444.43-441.87-445.09c-254.22-0.71-446.68,222.61-446.93,444.61
		c-0.27,237.38,207.48,443.75,444.49,444.24C2927.53,985.83,3156.56,801.76,3151.38,541.61z"/>
	<path class="st0" d="M470.04,590.87c22.36,11.35,44.15,22.41,66.5,33.75c-10.03,18.95-23.15,34.93-39.32,48.57
		c-63.64,53.73-167.35,48.14-223.93-12.45c-24.59-26.32-35.65-58.64-38.97-93.86c-3.84-40.71-0.64-80.58,20.25-116.77
		c28.57-49.51,72.76-74.29,129.34-76.57c42.64-1.72,83.26,6.06,116.46,35.08c13.68,11.96,24.58,27.1,37.58,41.73
		c-23.23,12.09-44.04,22.35-64.24,33.7c-8,4.49-11.29,4.17-16.22-4.38c-14.61-25.33-37.33-36.63-66.56-33.09
		c-28.31,3.43-46.15,20.01-53.8,46.88c-9.23,32.4-9.76,65.17,1.46,97.23c10.72,30.63,31,45.42,62.32,46.44
		c30.83,1,52.93-12.95,66.44-40.61C468.19,594.8,469,593.06,470.04,590.87z"/>
	<path class="st0" d="M847.93,451.59c-24.07,12.68-47.53,25.04-71.29,37.55c-1.93-3.35-3.6-6.41-5.42-9.39
		c-15.68-25.64-38.61-36.82-68.31-33.13c-28.83,3.58-46.55,20.85-53.88,48.16c-9.01,33.55-9.54,67.3,3.55,100.11
		c10.78,27.03,30.93,41.59,60.45,42.28c28.64,0.67,50.37-10.95,64.32-36.31c1.69-3.07,3.17-6.26,5.03-9.97
		c22.35,11.17,44.62,22.3,67.43,33.7c-10.4,18.84-23.63,34.8-39.9,48.31c-65.34,54.22-167.17,48.81-223.75-12.23
		c-25.02-27-35.81-60.16-38.77-96.14c-3.29-39.98-0.06-79.16,20.59-114.65c28.74-49.4,72.88-74.08,129.48-76.39
		c37.32-1.52,73.04,4.85,104.75,26.27C821.74,412.97,836.44,430.45,847.93,451.59z"/>
	<path class="st0" d="M1770.49,628.42c-19.15,0-37.63,0.17-56.1-0.12c-4.81-0.08-5.79,1.48-5.78,5.98
		c0.13,83.37,0.09,166.74,0.09,250.11c0,2.24,0,4.48,0,6.93c-56.34,0-111.98,0-168.35,0c0-2.38,0-4.62,0-6.86
		c0-82.66-0.1-165.33,0.18-247.99c0.02-6.97-1.97-8.37-8.47-8.2c-17.59,0.46-35.2,0.16-53.54,0.16c0-2.2,0-4.06,0-5.93
		c0-70.86-0.01-141.71,0.01-212.57c0.01-23.49,14.01-37.62,37.4-37.63c72.44-0.03,144.88-0.03,217.32,0
		c22.36,0.01,37.21,14.79,37.21,37.01c0.02,71.21,0.01,142.42,0.01,213.62C1770.49,624.49,1770.49,626.05,1770.49,628.42z"/>
	<path class="st0" d="M1625.25,343.26c-39.78-0.16-64.21-14.63-71.83-45.03c-3.64-14.54-4.58-30.48-3.17-45.44
		c4.68-49.57,40.17-64.81,84.95-60.67c43.44,4.02,63.66,27.14,64.35,71.01c0.16,10.31-0.42,20.9-2.63,30.93
		c-6.41,29.14-27.93,46.28-59.42,48.6C1633.12,342.98,1628.71,343.09,1625.25,343.26z"/>
	<path class="st0" d="M2599.26,465.18c13.31,0,25.58,0,37.35,0c-35.26,35.18-70.58,70.41-105.64,105.39
		c-34.33-34.34-69.63-69.66-105.36-105.41c11.93,0,23.81,0.26,35.67-0.24c2.15-0.09,5.68-2.98,6.05-5.03
		c10.99-61.48,35.99-114.99,86.36-154.44c46.82-36.67,100.71-50.5,159.17-49.14c61.82,1.44,119.2,16.85,167.85,56.86
		c57.01,46.88,88.38,108.28,98.41,180.69c8.52,61.52,5.79,122.54-20.16,179.89c-46.52,102.83-126.6,158.56-239.9,164.97
		c-60.33,3.42-116.06-9.98-165.36-46.3c-50.61-37.29-77.36-88.64-88.38-149.33c-0.82-4.5-1.44-9.04-2.11-13.56
		c-0.07-0.49,0.15-1.02,0.34-2.11c2.56,0,5.17,0,7.77,0c40.89,0,81.79-0.05,122.68,0.17c1.85,0.01,5.16,2.39,5.31,3.91
		c5.45,55.43,33.78,85.11,89.29,92.76c37.09,5.11,72.32,1.74,101.54-24.99c27.5-25.16,42.37-57.37,48.88-93.33
		c10.01-55.28,9.49-110.33-11.08-163.43c-19.8-51.12-60.69-76.18-115.62-73.09c-28.62,1.61-56.03,6.93-78.67,26.24
		C2612.51,413.69,2603.31,437.71,2599.26,465.18z"/>
</g>
</svg>
